<!--?xml version="1.0" encoding="utf-8"?-->
<!-- Generator: Adobe Illustrator 18.1.1, SVG Export Plug-In . SVG Version: 6.00 Build 0)  -->

<svg version="1.1" id="_x31_0" xmlns="http://www.w3.org/2000/svg" xmlns:xlink="http://www.w3.org/1999/xlink" x="0px" y="0px" viewBox="0 0 512 512" style="width: 32px; height: 32px; opacity: 1;" xml:space="preserve">
<style type="text/css">
	.st0{fill:#374149;}
</style>
<g>
	<path class="st0" d="M494.484,213.711L337.07,56.297c-11.402-11.402-26.562-17.68-42.687-17.68
		c-16.126,0-31.282,6.278-42.684,17.68c-4.328,4.328-7.953,9.246-10.766,14.602c-1.817,3.449-3.309,7.117-4.434,10.914
		c-1.649,5.57-2.484,11.348-2.484,17.172c0,5.824,0.835,11.602,2.484,17.18c2.84,9.586,8.094,18.406,15.199,25.507l31.641,31.641
		l22.156,22.317H60.371C27.082,195.629,0,222.711,0,256c0,33.285,27.082,60.367,60.371,60.367h144.172l101,0.113l-53.844,53.844
		c-4.328,4.324-7.953,9.246-10.766,14.602c-1.82,3.453-3.309,7.121-4.434,10.914c-1.649,5.57-2.484,11.348-2.484,17.172
		s0.835,11.602,2.484,17.18c2.84,9.582,8.094,18.402,15.199,25.508c5.758,5.758,12.481,10.218,19.973,13.258
		c3.602,1.461,7.371,2.582,11.195,3.32c3.785,0.73,7.656,1.106,11.516,1.106c3.859,0,7.738-0.375,11.519-1.106
		c11.836-2.293,22.614-8.023,31.168-16.578l157.414-157.414C505.778,286.992,512,271.976,512,256
		C512,240.024,505.778,225.004,494.484,213.711z" style="fill: rgb(75, 75, 75);"></path>
</g>
</svg>
