<svg xmlns="http://www.w3.org/2000/svg" width="100" height="19.602" viewBox="0 0 100 19.602">
  <path id="パス_2" data-name="パス 2" d="M15.383,1.4q-1.055,0-1.055-1.674V-3.726a34.14,34.14,0,0,0-.238-3.537q-.272-2.457-.272-3.375l.068-1.674q.068-.729.068-1.647-.136.351-1.124,3.726-.987,3.267-2.043,6.048Q9.765-1.512,9.118-1.512a1.624,1.624,0,0,1-1.038-.311,1.026,1.026,0,0,1-.392-.85A22.568,22.568,0,0,0,6.479-7.722q-1.209-3.861-2.2-6.318l-.2,3.051Q3.806-7.128,3.7-4.563q-.068,2.484-.068,3.4a2.285,2.285,0,0,0,.034.4v.378A.914.914,0,0,1,3.432.31,1.287,1.287,0,0,1,2.546.54,1.154,1.154,0,0,1,1.9.338a.557.557,0,0,1-.306-.446q0-2.754.511-8.262t.511-8.262a.787.787,0,0,1-.2-.513.55.55,0,0,1,.392-.5,2.277,2.277,0,0,1,.936-.176q.443,0,1.634,2.538T7.756-9.531A45.939,45.939,0,0,1,9.288-4.887q.272-.729.443-1.35l.2-.648q1.09-3.78,2.179-6.831a17.188,17.188,0,0,1,1.26-2.916q.613-1.134,1.124-1.134a1.862,1.862,0,0,1,.868.2.6.6,0,0,1,.392.527q0,1.944.2,5.832.238,3.618.238,5.616l-.034,1.431L16.1-2.727a6.857,6.857,0,0,0,.1.972l.1.945q.034.243.051.378t.017.162a1.379,1.379,0,0,1,.17.513,1.129,1.129,0,0,1-.34.81A1.1,1.1,0,0,1,15.383,1.4ZM23.554.378A1.1,1.1,0,0,1,22.6-.216q.375-.567.375-4.59a13.561,13.561,0,0,0-.17-2.052l-.1-.783a8.673,8.673,0,0,1-.1-1.107v-.7q-.34-.675-1.243-2.511t-1.447-3.078a6.079,6.079,0,0,1-.647-1.944v-.135l.783-.459q.579.054,1.226,1.188a20.957,20.957,0,0,1,1.209,2.862q.664,1.863.664,1.971a17.815,17.815,0,0,0,.545-2.025,23.6,23.6,0,0,1,.919-3.051q.579-1.323,1.192-1.323a1.088,1.088,0,0,1,.6.162.473.473,0,0,1,.255.4A11.967,11.967,0,0,1,25.7-13.5a13.08,13.08,0,0,0-1.021,3.942v8.127Q24.678.378,23.554.378ZM50.35,1.4q-1.056,0-1.056-1.674V-3.726a34.139,34.139,0,0,0-.238-3.537q-.272-2.457-.272-3.375l.068-1.674q.068-.729.068-1.647-.136.351-1.124,3.726-.987,3.267-2.043,6.048-1.021,2.673-1.668,2.673a1.624,1.624,0,0,1-1.038-.311,1.026,1.026,0,0,1-.392-.85,22.568,22.568,0,0,0-1.209-5.049q-1.209-3.861-2.2-6.318l-.2,3.051q-.272,3.861-.375,6.426-.068,2.484-.068,3.4a2.285,2.285,0,0,0,.034.4v.378A.914.914,0,0,1,38.4.31a1.287,1.287,0,0,1-.885.229,1.154,1.154,0,0,1-.647-.2.557.557,0,0,1-.306-.446q0-2.754.511-8.262t.511-8.262a.787.787,0,0,1-.2-.513.55.55,0,0,1,.392-.5,2.277,2.277,0,0,1,.936-.176q.443,0,1.634,2.538t2.383,5.751a45.938,45.938,0,0,1,1.532,4.644q.272-.729.443-1.35l.2-.648q1.09-3.78,2.179-6.831a17.188,17.188,0,0,1,1.26-2.916q.613-1.134,1.124-1.134a1.862,1.862,0,0,1,.868.2.6.6,0,0,1,.392.527q0,1.944.2,5.832.238,3.618.238,5.616l-.034,1.431-.068,1.431a6.857,6.857,0,0,0,.1.972l.1.945q.034.243.051.378t.017.162a1.379,1.379,0,0,1,.17.513,1.129,1.129,0,0,1-.34.81A1.1,1.1,0,0,1,50.35,1.4ZM57.3.351a1.391,1.391,0,0,1-.8-.243A.807.807,0,0,1,56.1-.486V-1.728A4.138,4.138,0,0,1,56.07-2.3q0-.567-.1-1.728L55.9-5.751q0-1.323.1-3.942.136-2.349.136-3.942a9.292,9.292,0,0,0-.1-1.134,9.918,9.918,0,0,1-.1-1.134q0-1.917,1.43-1.917a11.479,11.479,0,0,1,2.6.351q1.481.351,1.481.837a.644.644,0,0,1-.289.5,2.245,2.245,0,0,1-.7.365,16.708,16.708,0,0,0-2.588-.54q.034.4.034,1.161,0,1.08-.034,1.944-.1,1.3-.1,1.944l.1.432.545-.027q.272-.027.681-.027,1.634,0,1.634.756a.589.589,0,0,1-.306.5,1.394,1.394,0,0,1-.783.2,6.456,6.456,0,0,1-.953-.054h-.851q.068.7.068,2.052t-.034,2.43q-.1,1.647-.1,2.457a6.359,6.359,0,0,0,.068,1.512l1.124-.027q.579-.027,1.4-.027,1.294,0,1.294.648a.633.633,0,0,1-.426.581,2.4,2.4,0,0,1-1.038.2ZM79.121,1.4q-1.055,0-1.055-1.674V-3.726a34.139,34.139,0,0,0-.238-3.537q-.272-2.457-.272-3.375l.068-1.674q.068-.729.068-1.647-.136.351-1.124,3.726-.987,3.267-2.043,6.048Q73.5-1.512,72.856-1.512a1.624,1.624,0,0,1-1.038-.311,1.026,1.026,0,0,1-.392-.85,22.568,22.568,0,0,0-1.209-5.049q-1.209-3.861-2.2-6.318l-.2,3.051q-.272,3.861-.375,6.426-.068,2.484-.068,3.4a2.284,2.284,0,0,0,.034.4v.378A.914.914,0,0,1,67.17.31a1.287,1.287,0,0,1-.885.229,1.154,1.154,0,0,1-.647-.2.557.557,0,0,1-.306-.446q0-2.754.511-8.262t.511-8.262a.787.787,0,0,1-.2-.513.55.55,0,0,1,.392-.5,2.277,2.277,0,0,1,.936-.176q.443,0,1.634,2.538t2.383,5.751a45.939,45.939,0,0,1,1.532,4.644q.272-.729.443-1.35l.2-.648q1.09-3.78,2.179-6.831a17.188,17.188,0,0,1,1.26-2.916q.613-1.134,1.124-1.134a1.862,1.862,0,0,1,.868.2.6.6,0,0,1,.392.527q0,1.944.2,5.832.238,3.618.238,5.616L79.9-4.158l-.068,1.431a6.857,6.857,0,0,0,.1.972l.1.945q.034.243.051.378t.017.162a1.379,1.379,0,0,1,.17.513,1.129,1.129,0,0,1-.34.81A1.1,1.1,0,0,1,79.121,1.4ZM88.484.513A3.139,3.139,0,0,1,86.85.067a3.623,3.623,0,0,1-1.226-1.2A9.045,9.045,0,0,1,84.4-4.725a21.488,21.488,0,0,1-.306-3.537,3.561,3.561,0,0,1,.034-.54v-.486q0-.135-.034-.135v-.486l.034-1.89q.034-.864.272-2.754a7.8,7.8,0,0,1,.783-2.511,2.034,2.034,0,0,1,.613-.823,1.374,1.374,0,0,1,.851-.283,7.215,7.215,0,0,1,2.451.391,5.24,5.24,0,0,1,1.839,1.094,5.972,5.972,0,0,1,1.158,1.66,8.2,8.2,0,0,1,.681,2.093,13.545,13.545,0,0,1,.2,2.4v.216q0,.837.034,1.512l.034,1.539Q93.047.513,88.484.513ZM88.348-.621a1.805,1.805,0,0,0,1.124-.392,2.475,2.475,0,0,0,.783-1.066,8.661,8.661,0,0,0,.783-2.97,19.756,19.756,0,0,0,.17-2.376,27.767,27.767,0,0,0-.238-3.186q-.2-2.079-.2-3.105V-14.2a2.627,2.627,0,0,0-.868-1.782,2.744,2.744,0,0,0-1.958-.756,1.482,1.482,0,0,0-1.532,1.053,5.8,5.8,0,0,0-.34,2.16q0,.513.034.864v.729l-.068,1.242a10.457,10.457,0,0,0-.068,1.242q0,1.458.1,2.889a19.057,19.057,0,0,0,.681,3.942Q87.293-.621,88.348-.621Zm9.023,1A2.537,2.537,0,0,1,96.333.027a1,1,0,0,1-.494-.7l.375-.459a3.087,3.087,0,0,1,.647.108,5.4,5.4,0,0,0,.783.081,1.638,1.638,0,0,0,1.107-.432,2.566,2.566,0,0,0,.732-1.134,7.28,7.28,0,0,0,.443-2.322,6.47,6.47,0,0,0-1.43-3.753L98.12-9.1q-.647-.891-1.09-1.593a8.4,8.4,0,0,1-.749-1.512,5.785,5.785,0,0,1-.409-2.106,5.343,5.343,0,0,1,.681-2.484,2.72,2.72,0,0,1,.97-1.013,2.622,2.622,0,0,1,1.413-.392,2.211,2.211,0,0,1,1.141.31.882.882,0,0,1,.528.743.417.417,0,0,1-.238.378,1.158,1.158,0,0,1-.579.135,1.644,1.644,0,0,1-.715-.162q-.749.027-1.192,1.053a4.454,4.454,0,0,0-.375,1.566,4.375,4.375,0,0,0,.306,1.579,6.15,6.15,0,0,0,.783,1.444l.749,1.08,1.192,1.782a6.843,6.843,0,0,1,.766,1.755,7.243,7.243,0,0,1,.289,2.025,5.705,5.705,0,0,1-.953,3.132A3.46,3.46,0,0,1,99.295-.162,4.052,4.052,0,0,1,97.371.3Z" transform="translate(-1.593 18.198)" fill="#333"/>
</svg>
